# 3ds Max Wavefront OBJ Exporter v0.97b - (c)2007 guruware
# File Created: 06.11.2016 11:34:15

mtllib pyramid.mtl

#
# object Pyramid001
#

v  -0.500000 -0.200000 0.500000

v  0.000000 0.800000 0.000000

v  -0.500000 -0.200000 -0.500000

v  0.500000 -0.200000 0.500000

v  0.500000 -0.200000 -0.500000

# 5 vertices

vn -0.8944 0.4472 0.0000

vn 0.0000 0.4472 -0.8944

vn 0.8944 0.4472 0.0000

vn 0.0000 0.4472 0.8944

vn 0.0000 -1.0000 0.0000
# 5 normal coords

g Pyramid001
usemtl wire_138008110
f 2//1 3//1 1//1
f 2//2 5//2 3//2
f 2//3 4//3 5//3
f 2//4 1//4 4//4
f 3//5 4//5 1//5
f 3//5 5//5 4//5
# 6 faces

