# Blender v2.77 (sub 0) OBJ File: ''
# www.blender.org
mtllib s2.mtl
o Sphere
v -0.511500 0.001068 0.003874
v -0.011500 0.001068 -0.496126
v 0.488500 0.001068 0.003874
v -0.011500 0.001068 0.503874
v -0.011500 -0.498932 0.003874
v -0.011500 0.501068 0.003874
v -0.386500 0.001068 0.378874
v -0.386500 0.376068 0.003874
v -0.386500 0.001068 -0.371126
v -0.386500 -0.373932 0.003874
v -0.011500 0.376068 -0.371126
v 0.363500 0.001068 -0.371126
v -0.011500 -0.373932 -0.371126
v 0.363500 0.376068 0.003874
v 0.363500 0.001068 0.378874
v 0.363500 -0.373932 0.003874
v -0.011500 0.376068 0.378874
v -0.011500 -0.373932 0.378874
v -0.289278 -0.276710 0.281652
v -0.289278 0.278845 0.281652
v -0.289278 -0.276710 -0.273904
v -0.289278 0.278845 -0.273904
v 0.266277 -0.276710 0.281652
v 0.266277 0.278845 0.281652
v 0.266277 -0.276710 -0.273904
v 0.266277 0.278845 -0.273904
v -0.500000 -0.200000 -0.663980
v 0.000000 0.800000 -1.163980
v -0.500000 -0.200000 -1.663980
v 0.500000 -0.200000 -0.663980
v 0.500000 -0.200000 -1.663980
vn -0.8675 0.2892 0.4048
vn -0.8675 0.4048 -0.2892
vn -0.8675 -0.2892 -0.4048
vn -0.8675 -0.4048 0.2892
vn -0.4048 0.2892 -0.8675
vn 0.2892 0.4048 -0.8675
vn 0.4048 -0.2892 -0.8675
vn -0.2892 -0.4048 -0.8675
vn 0.8675 0.2892 -0.4048
vn 0.8675 0.4048 0.2892
vn 0.8675 -0.2892 0.4048
vn 0.8675 -0.4048 -0.2892
vn 0.4048 0.2892 0.8675
vn -0.2892 0.4048 0.8675
vn -0.4048 -0.2892 0.8675
vn 0.2892 -0.4048 0.8675
vn -0.2892 -0.8675 0.4048
vn -0.4048 -0.8675 -0.2892
vn 0.2892 -0.8675 -0.4048
vn 0.4048 -0.8675 0.2892
vn 0.2892 0.8675 0.4048
vn 0.4048 0.8675 -0.2892
vn -0.2892 0.8675 -0.4048
vn -0.4048 0.8675 0.2892
vn -0.8675 0.4048 0.2892
vn -0.8675 0.2892 -0.4048
vn -0.8675 -0.4048 -0.2892
vn -0.8675 -0.2892 0.4048
vn -0.2892 0.4048 -0.8675
vn 0.4048 0.2892 -0.8675
vn 0.2892 -0.4048 -0.8675
vn -0.4048 -0.2892 -0.8675
vn 0.8675 0.4048 -0.2892
vn 0.8675 0.2892 0.4048
vn 0.8675 -0.4048 0.2892
vn 0.8675 -0.2892 -0.4048
vn 0.2892 0.4048 0.8675
vn -0.4048 0.2892 0.8675
vn -0.2892 -0.4048 0.8675
vn 0.4048 -0.2892 0.8675
vn -0.4048 -0.8675 0.2892
vn -0.2892 -0.8675 -0.4048
vn 0.4048 -0.8675 -0.2892
vn 0.2892 -0.8675 0.4048
vn 0.4048 0.8675 0.2892
vn 0.2892 0.8675 -0.4048
vn -0.4048 0.8675 -0.2892
vn -0.2892 0.8675 0.4048
vn -0.8944 0.4472 0.0000
vn 0.0000 0.4472 -0.8944
vn 0.8944 0.4472 0.0000
vn 0.0000 0.4472 0.8944
vn 0.0000 -1.0000 0.0000
usemtl None
s off
f 1//1 20//1 8//1
f 1//2 22//2 9//2
f 1//3 21//3 10//3
f 1//4 19//4 7//4
f 2//5 22//5 11//5
f 2//6 26//6 12//6
f 2//7 25//7 13//7
f 2//8 21//8 9//8
f 3//9 26//9 14//9
f 3//10 24//10 15//10
f 3//11 23//11 16//11
f 3//12 25//12 12//12
f 4//13 24//13 17//13
f 4//14 20//14 7//14
f 4//15 19//15 18//15
f 4//16 23//16 15//16
f 5//17 19//17 10//17
f 5//18 21//18 13//18
f 5//19 25//19 16//19
f 5//20 23//20 18//20
f 6//21 24//21 14//21
f 6//22 26//22 11//22
f 6//23 22//23 8//23
f 6//24 20//24 17//24
f 1//25 7//25 20//25
f 1//26 8//26 22//26
f 1//27 9//27 21//27
f 1//28 10//28 19//28
f 2//29 9//29 22//29
f 2//30 11//30 26//30
f 2//31 12//31 25//31
f 2//32 13//32 21//32
f 3//33 12//33 26//33
f 3//34 14//34 24//34
f 3//35 15//35 23//35
f 3//36 16//36 25//36
f 4//37 15//37 24//37
f 4//38 17//38 20//38
f 4//39 7//39 19//39
f 4//40 18//40 23//40
f 5//41 18//41 19//41
f 5//42 10//42 21//42
f 5//43 13//43 25//43
f 5//44 16//44 23//44
f 6//45 17//45 24//45
f 6//46 14//46 26//46
f 6//47 11//47 22//47
f 6//48 8//48 20//48
f 28//49 29//49 27//49
f 28//50 31//50 29//50
f 28//51 30//51 31//51
f 28//52 27//52 30//52
f 29//53 30//53 27//53
f 29//53 31//53 30//53
