# Blender v2.78 (sub 0) OBJ File: ''
# www.blender.org
mtllib Sphere0.mtl
o Sphere.001
v -5.318731 -0.011105 0.040283
v -3.008000 -2.899514 2.928703
v -4.018943 -3.910468 0.040284
v -3.008000 -2.899515 -2.848136
v -4.018943 -0.011106 -3.859080
v -3.008000 2.877313 -2.848137
v -4.018943 3.888258 0.040282
v -3.008000 2.877314 2.928702
v -4.018943 -0.011105 3.939646
v -0.119580 -0.011106 -5.158867
v -0.119580 -3.910469 -3.859079
v 2.768828 -2.899515 -2.848136
v 3.779783 -0.011106 -3.859080
v 2.768828 2.877313 -2.848137
v -0.119580 3.888257 -3.859081
v 5.079570 -0.011105 0.040283
v 3.779783 -3.910468 0.040284
v 2.768828 -2.899514 2.928703
v 3.779783 -0.011105 3.939646
v 2.768828 2.877314 2.928702
v 3.779783 3.888258 0.040282
v -0.119580 -0.011105 5.239434
v -0.119580 -3.910468 3.939647
v -0.119580 3.888258 3.939645
v -0.119580 5.188045 0.040282
v -0.119580 -5.210256 0.040284
vn 0.8675 0.2892 -0.4048
vn 0.8675 0.4048 0.2892
vn 0.8675 -0.2892 0.4048
vn 0.8675 -0.4048 -0.2892
vn 0.4048 0.2892 0.8675
vn -0.2892 0.4048 0.8675
vn -0.4048 -0.2892 0.8675
vn 0.2892 -0.4048 0.8675
vn -0.8675 0.2892 0.4048
vn -0.8675 0.4048 -0.2892
vn -0.8675 -0.2892 -0.4048
vn -0.8675 -0.4048 0.2892
vn -0.4048 0.2892 -0.8675
vn 0.2892 0.4048 -0.8675
vn 0.4048 -0.2892 -0.8675
vn -0.2892 -0.4048 -0.8675
vn 0.2892 -0.8675 -0.4048
vn 0.4048 -0.8675 0.2892
vn -0.2892 -0.8675 0.4048
vn -0.4048 -0.8675 -0.2892
vn -0.2892 0.8675 -0.4048
vn -0.4048 0.8675 0.2892
vn 0.2892 0.8675 0.4048
vn 0.4048 0.8675 -0.2892
vn 0.8675 0.4048 -0.2892
vn 0.8675 0.2892 0.4048
vn 0.8675 -0.4048 0.2892
vn 0.8675 -0.2892 -0.4048
vn 0.2892 0.4048 0.8675
vn -0.4048 0.2892 0.8675
vn -0.2892 -0.4048 0.8675
vn 0.4048 -0.2892 0.8675
vn -0.8675 0.4048 0.2892
vn -0.8675 0.2892 -0.4048
vn -0.8675 -0.4048 -0.2892
vn -0.8675 -0.2892 0.4048
vn -0.2892 0.4048 -0.8675
vn 0.4048 0.2892 -0.8675
vn 0.2892 -0.4048 -0.8675
vn -0.4048 -0.2892 -0.8675
vn 0.4048 -0.8675 -0.2892
vn 0.2892 -0.8675 0.4048
vn -0.4048 -0.8675 0.2892
vn -0.2892 -0.8675 -0.4048
vn -0.4048 0.8675 -0.2892
vn -0.2892 0.8675 0.4048
vn 0.4048 0.8675 0.2892
vn 0.2892 0.8675 -0.4048
usemtl None.001
s 1
f 1//1 2//1 3//1
f 1//2 4//2 5//2
f 1//3 6//3 7//3
f 1//4 8//4 9//4
f 10//5 4//5 11//5
f 10//6 12//6 13//6
f 10//7 14//7 15//7
f 10//8 6//8 5//8
f 16//9 12//9 17//9
f 16//10 18//10 19//10
f 16//11 20//11 21//11
f 16//12 14//12 13//12
f 22//13 18//13 23//13
f 22//14 2//14 9//14
f 22//15 8//15 24//15
f 22//16 20//16 19//16
f 25//17 8//17 7//17
f 25//18 6//18 15//18
f 25//19 14//19 21//19
f 25//20 20//20 24//20
f 26//21 18//21 17//21
f 26//22 12//22 11//22
f 26//23 4//23 3//23
f 26//24 2//24 23//24
f 1//25 9//25 2//25
f 1//26 3//26 4//26
f 1//27 5//27 6//27
f 1//28 7//28 8//28
f 10//29 5//29 4//29
f 10//30 11//30 12//30
f 10//31 13//31 14//31
f 10//32 15//32 6//32
f 16//33 13//33 12//33
f 16//34 17//34 18//34
f 16//35 19//35 20//35
f 16//36 21//36 14//36
f 22//37 19//37 18//37
f 22//38 23//38 2//38
f 22//39 9//39 8//39
f 22//40 24//40 20//40
f 25//41 24//41 8//41
f 25//42 7//42 6//42
f 25//43 15//43 14//43
f 25//44 21//44 20//44
f 26//45 23//45 18//45
f 26//46 17//46 12//46
f 26//47 11//47 4//47
f 26//48 3//48 2//48
