# Blender v2.77 (sub 0) OBJ File: ''
# www.blender.org
mtllib tr.mtl
o Cube
v 1.000000 -1.000000 -1.000000
v -0.000000 -1.000000 1.000000
v -1.000000 -1.000000 -1.000000
v -0.000000 1.000000 0.000000
vt 0.0029 0.6657
vt 0.3343 0.9971
vt 0.0029 0.9971
vt 0.6657 0.3343
vt 0.3343 0.0029
vt 0.6657 0.0029
vt 0.9971 0.3343
vt 0.6657 0.0029
vt 0.9971 0.0029
vt 0.3343 0.3343
vt 0.6657 0.6657
vn 0.0000 -1.0000 0.0000
vn 0.8729 0.2182 0.4364
vn -0.8729 0.2182 0.4364
vn 0.0000 0.4472 -0.8944
usemtl Material
s off
f 1/1/1 2/2/1 3/3/1
f 1/4/2 4/5/2 2/6/2
f 2/7/3 4/8/3 3/9/3
f 4/10/4 1/4/4 3/11/4
